<svg width="0" height="0" class="hidden">

  <symbol xmlns="http://www.w3.org/2000/svg" viewBox="0 0 24 24" id="close_icon">
    <path d="M 4.9902344 3.9902344 A 1.0001 1.0001 0 0 0 4.2929688 5.7070312 L 10.585938 12 L 4.2929688 18.292969 A 1.0001 1.0001 0 1 0 5.7070312 19.707031 L 12 13.414062 L 18.292969 19.707031 A 1.0001 1.0001 0 1 0 19.707031 18.292969 L 13.414062 12 L 19.707031 5.7070312 A 1.0001 1.0001 0 0 0 18.980469 3.9902344 A 1.0001 1.0001 0 0 0 18.292969 4.2929688 L 12 10.585938 L 5.7070312 4.2929688 A 1.0001 1.0001 0 0 0 4.9902344 3.9902344 z"></path>
  </symbol>

  <symbol xmlns="http://www.w3.org/2000/svg" viewBox="0 0 30 30" id="delete_icon">
    <path d="M 14.984375 2.4863281 A 1.0001 1.0001 0 0 0 14 3.5 L 14 4 L 8.5 4 A 1.0001 1.0001 0 0 0 7.4863281 5 L 6 5 A 1.0001 1.0001 0 1 0 6 7 L 24 7 A 1.0001 1.0001 0 1 0 24 5 L 22.513672 5 A 1.0001 1.0001 0 0 0 21.5 4 L 16 4 L 16 3.5 A 1.0001 1.0001 0 0 0 14.984375 2.4863281 z M 6 9 L 7.7929688 24.234375 C 7.9109687 25.241375 8.7633438 26 9.7773438 26 L 20.222656 26 C 21.236656 26 22.088031 25.241375 22.207031 24.234375 L 24 9 L 6 9 z"></path>
  </symbol>

    <symbol xmlns="http://www.w3.org/2000/svg" viewBox="0 0 24 24" id="update_icon">
    <path d="M2.99875 21.0013H6.74875L17.8087 9.94128L14.0587 6.19128L2.99875 17.2513V21.0013ZM4.99875 18.0813L14.0587 9.02128L14.9787 9.94128L5.91875 19.0013H4.99875V18.0813Z" ></path>
    <path d="M18.3687 3.29128C17.9787 2.90128 17.3487 2.90128 16.9587 3.29128L15.1287 5.12128L18.8787 8.87128L20.7087 7.04128C21.0987 6.65128 21.0987 6.02128 20.7087 5.63128L18.3687 3.29128Z"></path>
  </symbol>

    <symbol version="1.0" xmlns="http://www.w3.org/2000/svg" preserveAspectRatio="xMidYMid meet" viewBox="0 0 32.000000 32.000000" id="github_icon">
        <g transform="translate(0.000000,32.000000) scale(0.100000,-0.100000)" stroke="none">
          <path d="M95 306 c-113 -52 -127 -204 -25 -274 39 -26 50 -28 50 -7 0 8 -7 15
            -15 15 -8 0 -25 12 -39 27 -28 30 -26 45 2 20 20 -19 48 -22 57 -8 3 5 -3 12
            -14 16 -40 12 -54 41 -47 97 l7 53 89 0 89 0 7 -53 c7 -55 -7 -85 -45 -97 -13
            -4 -16 -14 -13 -45 2 -22 7 -40 12 -40 4 0 22 10 40 22 93 64 91 191 -2 261
            -34 25 -113 32 -153 13z">
          </path>
        </g>
  </symbol>

  <symbol version="1.0" xmlns="http://www.w3.org/2000/svg" preserveAspectRatio="xMidYMid meet" viewBox="0 0 1200.000000 1200.000000" id="DS">
    <g transform="translate(0.000000,1200.000000) scale(0.100000,-0.100000)" stroke="none">
      <path d="M6815 8972 c-90 -42 -50 68 -665 -1860 l-565 -1772 -484 0 c-411 0
-482 -2 -478 -14 3 -8 126 -193 273 -412 147 -218 267 -402 267 -408 0 -6
-122 -194 -271 -419 -150 -224 -272 -409 -272 -412 0 -3 97 -5 216 -5 l215 0
-7 -22 c-4 -13 -34 -106 -67 -208 -66 -203 -73 -260 -42 -324 38 -79 141 -122
228 -96 26 7 58 29 82 54 43 44 35 23 160 419 l56 177 965 0 965 0 -279 417
-279 417 269 404 c148 222 272 410 275 418 4 12 -95 14 -686 14 -394 0 -691 4
-691 9 0 5 243 771 541 1702 424 1326 541 1705 541 1747 2 135 -146 231 -267
174z m-310 -3796 c57 -26 99 -70 127 -133 14 -33 18 -61 16 -120 l-3 -78 -85
0 -85 0 -5 68 c-4 60 -9 72 -33 93 -31 26 -92 33 -129 13 -25 -13 -48 -68 -48
-113 0 -61 38 -135 165 -326 181 -271 235 -408 216 -540 -12 -84 -25 -117 -50
-125 -14 -4 -21 -15 -21 -30 0 -13 -11 -36 -24 -52 -22 -26 -29 -27 -123 -31
-167 -7 -255 33 -307 141 -30 62 -50 184 -36 222 9 24 13 25 89 25 51 0 82 -4
88 -12 6 -7 13 -42 15 -79 8 -98 36 -129 117 -129 74 0 107 72 77 172 -19 65
-93 196 -194 343 -198 289 -233 497 -108 633 58 64 103 82 206 82 68 0 95 -5
135 -24z m-727 -10 c91 -33 143 -96 162 -194 5 -29 10 -247 10 -485 1 -406 0
-436 -19 -497 -23 -75 -69 -127 -141 -159 -40 -18 -66 -21 -222 -21 -159 0
-178 2 -187 18 -5 10 -10 288 -10 679 -2 626 -1 662 16 673 28 17 337 7 391
-14z"></path>
      <path d="M5565 5008 c-2 -7 -5 -100 -7 -206 -3 -150 -7 -195 -18 -202 -11 -7
-10 -11 3 -25 18 -18 23 -148 17 -453 l-2 -143 78 3 79 3 23 45 c22 44 22 48
22 470 0 385 -2 428 -18 460 -9 19 -28 40 -42 47 -33 17 -129 17 -135 1z"></path>
      <path d="M4140 7961 c-14 -4 -508 -330 -1097 -724 -1160 -777 -1142 -763
-1216 -905 -99 -188 -101 -388 -6 -581 77 -156 56 -140 1243 -932 l1068 -714
67 0 c58 0 74 4 108 28 89 61 113 174 57 263 -26 40 -149 125 -1094 757 -993
664 -1067 715 -1095 761 -26 43 -30 59 -30 121 0 62 4 78 30 121 28 46 99 95
1100 764 993 664 1072 718 1095 760 68 124 -15 279 -153 286 -29 2 -63 0 -77
-5z"></path>
      <path d="M7710 7948 c-96 -52 -132 -173 -80 -268 23 -42 101 -96 1090 -756
785 -524 1072 -720 1092 -748 38 -53 54 -131 39 -193 -24 -96 -36 -106 -501
-416 -1507 -1005 -1694 -1134 -1719 -1178 -50 -87 -23 -197 62 -256 34 -24 50
-28 107 -28 l67 0 1064 710 c1185 791 1171 780 1248 936 95 193 93 392 -7 584
-74 141 -80 145 -1239 918 -1055 705 -1062 709 -1120 714 -48 4 -66 1 -103
-19z"></path>
    </g>
  </symbol>



</svg>